<svg xmlns="http://www.w3.org/2000/svg" version="1.1" xmlns:xlink="http://www.w3.org/1999/xlink" xmlns:svgjs="http://svgjs.dev/svgjs" width="1500" height="416" viewBox="0 0 1500 416"><g transform="matrix(1,0,0,1,-0.9090909090909918,0.5158931272055156)"><svg viewBox="0 0 396 110" data-background-color="#000000" preserveAspectRatio="xMidYMid meet" height="416" width="1500" xmlns="http://www.w3.org/2000/svg" xmlns:xlink="http://www.w3.org/1999/xlink"><g id="tight-bounds" transform="matrix(1,0,0,1,0.2400000000000091,-0.13641404805915158)"><svg viewBox="0 0 395.52 110.27282809611829" height="110.27282809611829" width="395.52"><g><svg viewBox="0 0 395.52000000000004 110.2728280961183" height="110.27282809611829" width="395.52"><g><svg viewBox="0 0 395.52000000000004 110.2728280961183" height="110.2728280961183" width="395.52000000000004"><g id="textblocktransform"><svg viewBox="0 0 395.52000000000004 110.2728280961183" height="110.2728280961183" width="395.52000000000004" id="textblock"><g><svg viewBox="0 0 395.52000000000004 110.2728280961183" height="110.2728280961183" width="395.52000000000004"><g transform="matrix(1,0,0,1,0,0)"><svg width="395.52000000000004" viewBox="0.95 -40.7 162.29000000000002 45.25" height="110.2728280961183" data-palette-color="#ffffff"><path d="M9.7-19.45Q9-18.85 8.15-18.85 7.3-18.85 6.8-19.45 6.3-20.05 6.4-20.9L6.4-20.9Q6.55-21.75 7.25-22.35 7.95-22.95 8.8-22.95 9.65-22.95 10.18-22.35 10.7-21.75 10.55-20.9 10.4-20.05 9.7-19.45ZM4.8-1.1L4.8-1.1Q5.75-1.1 6.8-2.05L6.8-2.05Q8.65-3.9 11.5-9.6L11.5-9.6Q11.85-10.35 12.2-10.05L12.2-10.05Q12.3-9.95 12.3-9.73 12.3-9.5 11.9-8.63 11.5-7.75 11.18-7.05 10.85-6.35 9.93-4.78 9-3.2 8.25-2.35L8.25-2.35Q6.2 0 4.38 0 2.55 0 1.75-1.1 0.95-2.2 0.95-3.55 0.95-4.9 1.6-6.5L1.6-6.5 4.8-14.65Q4.9-14.95 4.9-15.45 4.9-15.95 4.3-16.75L4.3-16.75 7.05-16.8Q8.2-16.8 8.4-16.38 8.6-15.95 8.1-15.05L8.1-15.05 4.1-5.7Q3.25-3.85 3.25-2.55L3.25-2.55Q3.25-1.1 4.8-1.1ZM26.65-16.4L26.65-16.4Q20.5-5.6 20.5-2.3L20.5-2.3Q20.5-1 21.45-1L21.45-1Q24-1 28.3-9.65L28.3-9.65Q28.6-10.35 28.9-10.2 29.2-10.05 29.2-9.8 29.2-9.55 29-9.2L29-9.2Q26.35-3.85 24.52-1.83 22.7 0.2 20.87 0.2 19.05 0.2 18.1-1.2L18.1-1.2Q17.6-1.85 17.6-2.98 17.6-4.1 18.1-5.7 18.6-7.3 20.85-10.9L20.85-10.9Q21.4-11.8 21.4-12.33 21.4-12.85 20.55-12.85 19.7-12.85 17.3-10.6L17.3-10.6Q13.7-7.3 10.35-0.7L10.35-0.7Q10.05-0.2 9.67-0.08 9.3 0.05 8.2 0.1 7.1 0.15 6.75 0.35L6.75 0.35Q7.55-1.25 9.9-6.2L9.9-6.2Q14.1-14.95 15.4-16.2L15.4-16.2Q16-16.8 17.05-16.8L17.05-16.8Q17.25-16.8 18.07-16.65 18.9-16.5 19.3-16.6L19.3-16.6Q17.45-15.6 13.25-7.2L13.25-7.2Q15.6-10.1 17.52-11.83 19.45-13.55 22.15-15.03 24.85-16.5 26.1-16.5L26.1-16.5Q26.4-16.5 26.65-16.4ZM32.55-0.95L32.55-0.95Q33.2-0.85 33.45-0.85L33.45-0.85Q35.45-0.85 37.4-3.2L37.4-3.2Q38.45-4.5 41.15-9.75L41.15-9.75Q41.25-10 41.5-10L41.5-10Q41.95-10.05 41.95-9.65L41.95-9.65Q41.95-9.55 41.72-9.08 41.5-8.6 41.3-8.13 41.09-7.65 40.65-6.75 40.2-5.85 39.87-5.3 39.55-4.75 39.05-3.95 38.55-3.15 38.05-2.7L38.05-2.7 37-1.6Q36.15-0.75 35-0.4L35-0.4Q33.15 0.2 31.39-0.3L31.39-0.3Q30.25 0.2 29.34 0.2L29.34 0.2Q25.8 0.2 25.05-2.6L25.05-2.6Q24.89-3.25 24.89-4.17 24.89-5.1 25.52-5.95 26.14-6.8 26.84-6.85L26.84-6.85Q29.39-11.7 31.2-15.6L31.2-15.6Q33.2-19.85 35.84-19.85L35.84-19.85Q36.55-19.85 37.22-19.53 37.9-19.2 37.72-18.8 37.55-18.4 37-18.65 36.45-18.9 36.05-18.9 35.65-18.9 35.34-18.75L35.34-18.75Q33.65-17.95 33.65-15.3L33.65-15.3Q33.65-13.9 34.05-13 34.45-12.1 34.95-11.05L34.95-11.05Q36.09-8.45 36.09-6.8L36.09-6.8Q36.09-5.15 35.05-3.55 34-1.95 32.55-0.95ZM30.84-1.3L30.84-1.3Q33.05-3 33.05-6.8L33.05-6.8Q33.05-8.35 32.7-11.05 32.34-13.75 32.34-14.7 32.34-15.65 32.4-16L32.4-16Q28.59-8.4 27.7-6.75L27.7-6.75Q28.75-6.75 28.75-5.25L28.75-5.25Q28.75-2.3 30.84-1.3ZM27.09-2.65L27.09-2.65Q27.09-2.35 27.14-2L27.14-2Q27.55-0.65 29-0.65L29-0.65Q29.59-0.65 30-0.85L30-0.85Q28.14-2 28-4.6L28-4.6Q27.09-3.7 27.09-2.65ZM39.84-4L39.84-4Q39.84-8.15 43.84-17.9L43.84-17.9 41.24-17.9Q40.99-17.9 40.92-18.18 40.84-18.45 40.97-18.73 41.09-19 41.34-19L41.34-19 44.34-19Q46.14-22.95 47.69-25.6 49.24-28.25 50.54-29.18 51.84-30.1 52.42-30.1 52.99-30.1 53.24-30L53.24-30Q54.39-29.45 54.39-27.73 54.39-26 53.24-23.55 52.09-21.1 50.99-19L50.99-19 53.39-19Q53.64-19 53.72-18.73 53.79-18.45 53.67-18.18 53.54-17.9 53.29-17.9L53.29-17.9 50.39-17.9Q47.64-13.25 43.74-9.65L43.74-9.65 42.59-4.55Q42.44-3.9 42.44-3.28 42.44-2.65 42.79-2 43.14-1.35 43.89-1.35L43.89-1.35Q44.74-1.35 45.79-1.95L45.79-1.95Q48.19-3.75 51.09-9.5L51.09-9.5Q51.29-9.95 51.57-10.05 51.84-10.15 51.89-9.93 51.94-9.7 51.74-9.2L51.74-9.2Q50.09-5.75 49.14-4.3L49.14-4.3Q46.44 0.05 43.39 0.05L43.39 0.05Q41.84 0.05 40.84-1.1 39.84-2.25 39.84-4ZM47.39-19L49.89-19Q53.19-24.9 53.19-27.2L53.19-27.2Q53.19-28.2 52.84-28.2L52.84-28.2Q52.29-28.2 51.17-26.6 50.04-25 47.39-19L47.39-19ZM49.24-17.9L49.24-17.9 46.89-17.9Q46.29-16.5 44.19-11.25L44.19-11.25Q46.89-14.05 49.24-17.9ZM66.29-13.55Q65.39-12.65 63.74-9.47 62.09-6.3 61.77-4.73 61.44-3.15 61.44-2.18 61.44-1.2 62.19-1.2L62.19-1.2Q63.14-1.2 64.54-2.95L64.54-2.95Q66.59-5.5 68.59-9.6L68.59-9.6Q68.79-10.05 69.04-10.1L69.04-10.1Q69.44-10.25 69.44-9.8L69.44-9.8Q69.44-9.55 69.29-9.2L69.29-9.2Q64.69 0.1 61.54 0.1L61.54 0.1Q60.09 0.1 59.19-1.3L59.19-1.3Q58.74-2.05 58.74-3.3 58.74-4.55 59.24-6.35L59.24-6.35Q55.24 0.1 52.34 0.1L52.34 0.1Q51.54 0.1 50.89-0.4L50.89-0.4Q49.39-1.45 49.39-4L49.39-4Q49.39-8.9 53.64-13.95L53.64-13.95Q56.04-16.75 59.54-17.6L59.54-17.6Q60.49-17.85 61.34-17.85L61.34-17.85Q63.64-17.85 65.24-16.25L65.24-16.25Q65.74-15.7 65.54-15.2 65.34-14.7 64.69-14.8L64.69-14.8Q64.14-16.6 62.29-16.6L62.29-16.6Q60.14-16.6 56.99-13.2L56.99-13.2Q55.19-11.2 53.64-8.5L53.64-8.5Q51.69-5.25 51.69-3.3 51.69-1.35 52.94-1.35L52.94-1.35Q55.94-1.35 60.79-10.55L60.79-10.55Q61.74-12.4 62.39-13.08 63.04-13.75 64.04-13.75L64.04-13.75Q64.24-13.75 65.07-13.6 65.89-13.45 66.29-13.55L66.29-13.55ZM84.49-1.8L84.49-1.8Q79.84 1.95 74.19 1.95L74.19 1.95Q67.74 1.95 66.24-1.65L66.24-1.65Q65.89-2.5 65.89-3.63 65.89-4.75 67.04-6.05L67.04-6.05Q68.84-8.1 72.04-8.1L72.04-8.1Q74.19-8.1 76.36-7.33 78.54-6.55 84.09-3.6L84.09-3.6Q86.59-6 89.09-10 91.59-14 93.41-17.73 95.24-21.45 97.86-25.85 100.49-30.25 103.09-33.15L103.09-33.15Q97.49-36.5 91.19-36.5L91.19-36.5Q88.59-36.5 85.89-35.95L85.89-35.95Q78.14-34.3 74.09-29.2L74.09-29.2Q71.59-26.1 71.59-23.3L71.59-23.3Q71.59-19.5 75.24-18.35L75.24-18.35Q76.54-18 77.49-18 78.44-18 79.61-18.3 80.79-18.6 81.94-19.7L81.94-19.7Q84.14-21.9 84.29-23.8L84.29-23.8Q84.34-24.25 84.86-24.13 85.39-24 85.29-23.35L85.29-23.35Q84.79-19.7 81.44-17.8L81.44-17.8Q79.39-16.7 77.34-16.7L77.34-16.7 74.74-17.15Q70.94-18.45 69.74-22L69.74-22Q69.24-23.35 69.24-24.7L69.24-24.7Q69.24-27.45 71.29-30.15L71.29-30.15Q75.69-36.05 86.89-37.7L86.89-37.7Q89.09-38 91.24-38L91.24-38Q98.19-38 104.49-34.7L104.49-34.7Q106.44-36.95 108.09-38.13 109.74-39.3 110.74-39.3L110.74-39.3Q111.29-39.3 111.39-39.08 111.49-38.85 111.36-38.73 111.24-38.6 111.04-38.6L111.04-38.6Q110.19-38.6 108.84-36.8 107.49-35 106.64-33.45L106.64-33.45Q111.99-29.9 114.79-24.35L114.79-24.35Q117.04-19.9 117.04-14.65L117.04-14.65Q117.04-8.15 113.94-4.3L113.94-4.3Q111.39-1.15 107.74 0.15L107.74 0.15Q103.39 1.7 99.14 1.7L99.14 1.7Q90.54 1.7 84.49-1.8ZM85.69-2.7L85.69-2.7Q90.74 0.3 97.54 0.3L97.54 0.3Q105.44 0.3 110.14-4.2L110.14-4.2Q113.89-7.85 113.89-14.3L113.89-14.3Q113.89-18.9 112.09-22.95L112.09-22.95Q109.84-28.1 105.44-31.55L105.44-31.55Q103.99-29.3 99.86-22.48 95.74-15.65 92.89-11.4 90.04-7.15 88.39-5.38 86.74-3.6 85.69-2.7ZM82.79-2.6L82.79-2.6Q76.94-5.4 75.39-5.95 73.84-6.5 72.36-6.5 70.89-6.5 70.01-5.4 69.14-4.3 69.14-3.43 69.14-2.55 69.54-1.75L69.54-1.75Q70.59 0.4 73.84 0.4L73.84 0.4Q78.64 0.4 82.79-2.6ZM161.44-33.95L161.44-33.95Q161.44-35.7 159.84-37.25L159.84-37.25Q157.54-39.45 153.49-39.45L153.49-39.45Q149.94-39.45 145.64-37.9L145.64-37.9Q143.39-37.1 141.74-35.7L141.74-35.7Q139.19-33.5 139.19-31.3L139.19-31.3Q139.19-28.35 142.94-26L142.94-26Q144.34-25.15 148.56-23.23 152.79-21.3 154.74-20.1L154.74-20.1Q157.69-18.3 158.81-16.25 159.94-14.2 159.94-12.45L159.94-12.45Q159.94-9.95 158.29-7.35L158.29-7.35Q155.39-2.7 149.79 0.65L149.79 0.65Q143.34 4.55 134.24 4.55L134.24 4.55Q125.49 4.55 120.34 0.1L120.34 0.1Q116.34-3.3 116.34-8.65L116.34-8.65Q116.34-12.05 118.81-16.15 121.29-20.25 124.89-21.95L124.89-21.95Q125.64-22.25 126.01-22.15 126.39-22.05 125.39-21.2L125.39-21.2Q123.24-19.5 121.94-17.45L121.94-17.45Q119.14-13.05 119.14-7.9L119.14-7.9Q119.14-4.5 121.04-1.95L121.04-1.95Q124.44 2.6 132.84 3.2L132.84 3.2Q133.79 3.3 135.66 3.3 137.54 3.3 140.76 2.63 143.99 1.95 146.99 0.4L146.99 0.4Q153.44-3 155.34-8.4L155.34-8.4Q155.94-10 155.94-11.5L155.94-11.5Q155.94-14.9 152.89-17.5L152.89-17.5Q151.24-18.8 146.16-20.98 141.09-23.15 139.34-24.3L139.34-24.3Q135.49-26.9 135.49-30.45L135.49-30.45Q135.49-33.55 138.94-36.5L138.94-36.5Q143.89-40.7 152.94-40.7L152.94-40.7Q157.19-40.7 159.86-39.43 162.54-38.15 163.14-35.6L163.14-35.6Q163.24-35.1 163.24-34.6L163.24-34.6Q163.24-32.65 161.44-31.1L161.44-31.1Q160.19-30.1 158.09-29.5L158.09-29.5Q157.19-29.25 157.09-29.7L157.09-29.7Q156.99-30.35 158.34-30.5L158.34-30.5Q160.74-30.8 161.29-32.9L161.29-32.9Q161.44-33.45 161.44-33.95Z" opacity="1" transform="matrix(1,0,0,1,0,0)" fill="#ffffff" class="wordmark-text-0" data-fill-palette-color="primary" id="text-0"></path></svg></g></svg></g></svg></g></svg></g></svg></g><defs></defs></svg><rect width="395.52" height="110.27282809611829" fill="none" stroke="none" visibility="hidden"></rect></g></svg></g></svg>